<?xml version="1.0" encoding="utf-8"?>
<!-- Generator: Adobe Illustrator 19.0.0, SVG Export Plug-In . SVG Version: 6.00 Build 0)  -->
<svg version="1.1" id="Layer_1" xmlns="http://www.w3.org/2000/svg" xmlns:xlink="http://www.w3.org/1999/xlink" x="0px" y="0px"
	 viewBox="0 0 100 100" style="enable-background:new 0 0 100 100;" xml:space="preserve">
<style type="text/css">
	.st0{fill:#010101;}
</style>
<g id="XMLID_34_">
	<g id="XMLID_77_">
		<g id="XMLID_93_">
			<g id="XMLID_96_">
				<g id="XMLID_17_">
					<path id="XMLID_199_" d="M60.2,30.3c-6,0-10.7-4.8-10.7-10.7c0-6,4.8-10.7,10.7-10.7c6,0,10.7,4.9,10.6,10.8
						C70.8,25.7,66,30.3,60.2,30.3z M69,19.7c0-4.8-3.9-8.8-8.9-8.8c-4.8,0-8.8,3.9-8.8,8.8c0,4.9,3.8,8.8,8.7,8.9
						C64.9,28.6,69,24.7,69,19.7z"/>
				</g>
				<g id="XMLID_24_">
					<path id="XMLID_193_" d="M60.2,30.9L60.2,30.9c-6.2,0-11.3-5.1-11.3-11.3c0-3,1.2-5.9,3.3-8c2.1-2.1,4.9-3.3,7.9-3.3
						c0,0,0,0,0,0c3,0,5.9,1.2,8,3.4c2.1,2.2,3.3,5,3.2,8.1C71.4,26,66.4,30.9,60.2,30.9z M60.2,9.6c-2.7,0-5.2,1-7.1,2.9
						c-1.9,1.9-3,4.4-3,7.2c0,5.5,4.5,10.1,10.1,10.1c5.6,0,10-4.4,10.1-10c0-2.7-1-5.3-2.9-7.2C65.5,10.6,63,9.6,60.2,9.6
						C60.2,9.6,60.2,9.6,60.2,9.6z M60.2,29.1c-0.1,0-0.1,0-0.2,0c-5.1-0.1-9.3-4.4-9.2-9.5c0-5.2,4.3-9.4,9.4-9.4c0,0,0,0,0,0
						c5.2,0,9.4,4.2,9.5,9.4v0c0,2.6-1,5-2.8,6.8C65,28.2,62.7,29.1,60.2,29.1z M60.2,11.4c-4.5,0-8.2,3.7-8.2,8.2
						c0,4.5,3.6,8.2,8.1,8.3c2.2,0,4.3-0.8,5.9-2.3c1.6-1.6,2.5-3.7,2.5-5.9C68.4,15.1,64.7,11.4,60.2,11.4
						C60.2,11.4,60.2,11.4,60.2,11.4z"/>
				</g>
			</g>
			<g id="XMLID_30_">
				<g id="XMLID_189_">
					<path id="XMLID_190_" d="M74.3,52.3c-0.1,0-0.3,0-0.4-0.1c-0.3-0.1-0.5-0.2-0.6-0.5c-0.2-0.5-0.5-1.1-0.7-1.6
						c-0.5-1.2-1-2.4-1.6-3.6c-0.8-1.9-1.6-3.7-2.5-5.6c-0.9-2.1-1.8-4.1-2.7-6.2c-0.1-0.2-0.2-0.4-0.3-0.7c0,0,0-0.1,0-0.1
						c0-0.1,0-0.1,0-0.2c0-0.1,0.1-0.2,0.2-0.3c0.1-0.1,0.2-0.2,0.3-0.3c0.3-0.2,0.7-0.4,1.1-0.5c0.1,0,0.3-0.1,0.4,0
						c0.1,0,0.1,0,0.2,0c0.1,0,0.2,0.1,0.3,0.2c0.1,0.2,0.2,0.4,0.3,0.6c0.2,0.4,0.4,0.9,0.7,1.3c0.5,1,1,2,1.4,2.9
						c0.2,0.4,0.4,0.8,0.6,1.2c0.5,1,0.9,1.9,1.4,2.9c0.3,0.6,0.6,1.2,0.9,1.8c0.5,1,0.9,1.9,1.4,2.9c0.2,0.4,0.4,0.9,0.7,1.3
						c0.4,0.8,0.8,1.5,1.1,2.3c0.1,0.3,0.1,0.5,0,0.8c-0.1,0.2-0.2,0.3-0.3,0.4c-0.2,0.3-0.5,0.5-0.8,0.6c-0.3,0.1-0.5,0.2-0.8,0.3
						C74.5,52.3,74.4,52.3,74.3,52.3z"/>
				</g>
			</g>
			<g id="XMLID_29_">
				<g id="XMLID_186_">
					<path id="XMLID_187_" d="M64,30.1c0.7-0.2,1.3-0.6,1.9-0.9c0,0,0,0,0,0c0.5,1,1,2.1,1.5,3.1c0,0,0,0,0,0
						c-0.7,0.1-1.4,0.4-1.9,0.9c0,0,0-0.1-0.1-0.1c-0.4-0.8-0.7-1.5-1.1-2.3c-0.1-0.2-0.2-0.4-0.3-0.7C64,30.2,64,30.1,64,30.1z"/>
				</g>
			</g>
		</g>
		<g id="XMLID_90_">
			<g id="XMLID_2_">
				<path id="XMLID_181_" d="M36.3,30.1c-6,0-10.7-4.8-10.7-10.7c0-6,4.8-10.7,10.7-10.7c6,0,10.7,4.9,10.6,10.8
					C46.9,25.5,42.1,30.1,36.3,30.1z M45.1,19.5c0-4.8-3.9-8.8-8.9-8.8c-4.8,0-8.8,3.9-8.8,8.8c0,4.9,3.8,8.8,8.7,8.9
					C41,28.4,45.1,24.5,45.1,19.5z"/>
			</g>
			<g id="XMLID_8_">
				<path id="XMLID_175_" d="M36.3,30.7L36.3,30.7c-6.2,0-11.3-5.1-11.3-11.3c0-3,1.2-5.9,3.3-8c2.1-2.1,4.9-3.3,7.9-3.3
					c0,0,0,0,0,0c3,0,5.9,1.2,8,3.4c2.1,2.2,3.3,5,3.2,8.1C47.5,25.8,42.5,30.7,36.3,30.7z M36.3,9.3c-2.7,0-5.2,1-7.1,2.9
					c-1.9,1.9-3,4.4-3,7.2c0,5.5,4.5,10.1,10.1,10.1c5.6,0,10-4.4,10.1-10c0-2.7-1-5.3-2.9-7.2C41.6,10.4,39.1,9.4,36.3,9.3
					C36.3,9.3,36.3,9.3,36.3,9.3z M36.3,28.9c-0.1,0-0.1,0-0.2,0c-5.1-0.1-9.3-4.4-9.2-9.5c0-5.2,4.3-9.4,9.4-9.4c0,0,0,0,0,0
					c5.2,0,9.4,4.2,9.5,9.4v0c0,2.6-1,5-2.8,6.8C41.1,28,38.8,28.9,36.3,28.9z M36.3,11.2c-4.5,0-8.2,3.7-8.2,8.2
					c0,4.5,3.6,8.2,8.1,8.3c2.2,0,4.3-0.8,5.9-2.3c1.6-1.6,2.5-3.7,2.5-5.9C44.5,14.9,40.8,11.2,36.3,11.2
					C36.3,11.2,36.3,11.2,36.3,11.2z"/>
			</g>
		</g>
		<g id="XMLID_23_">
			<g id="XMLID_3_">
				<g id="XMLID_164_">
					<path id="XMLID_22_" class="st0" d="M74.6,8.6h7.7c1.3,0,2.4,0.3,3.4,0.9c1,0.6,1.8,1.4,2.4,2.4c0.7,1,1.1,2.1,1.5,3.4
						c0.3,1.3,0.5,2.5,0.5,3.8c0,1.3-0.2,2.6-0.5,3.9c-0.3,1.3-0.8,2.4-1.5,3.4c-0.6,1-1.4,1.8-2.4,2.4c-0.9,0.6-2,0.9-3.2,0.9h-7.9
						V8.6z M77.2,27.5h4.6c0.9,0,1.7-0.2,2.5-0.7c0.7-0.4,1.3-1.1,1.8-1.8c0.5-0.8,0.9-1.6,1.1-2.6c0.2-1,0.4-2.1,0.4-3.2
						c0-1.2-0.1-2.4-0.4-3.4c-0.2-1-0.6-1.9-1.1-2.6c-0.5-0.7-1.1-1.3-1.8-1.7c-0.7-0.4-1.5-0.6-2.5-0.6h-4.7V27.5z"/>
					<path id="XMLID_84_" class="st0" d="M82.5,30.1h-8.2V8.2h8.1c1.3,0,2.5,0.3,3.5,1c1,0.6,1.9,1.5,2.5,2.5c0.7,1,1.2,2.2,1.5,3.5
						c0.3,1.3,0.5,2.6,0.5,3.9c0,1.3-0.2,2.7-0.5,4c-0.4,1.3-0.9,2.5-1.5,3.5c-0.7,1-1.5,1.9-2.5,2.5C85,29.8,83.8,30.1,82.5,30.1z
						 M75,29.4h7.5c1.1,0,2.2-0.3,3-0.9c0.9-0.6,1.7-1.4,2.3-2.3c0.6-1,1.1-2.1,1.4-3.3c0.3-1.2,0.5-2.5,0.5-3.8
						c0-1.3-0.2-2.5-0.5-3.8c-0.3-1.2-0.8-2.3-1.4-3.3c-0.6-0.9-1.4-1.7-2.3-2.3c-0.9-0.6-2-0.9-3.2-0.9H75V29.4z M81.8,27.9h-5
						V10.5h5c1,0,1.9,0.2,2.6,0.7c0.8,0.4,1.4,1,1.9,1.8c0.5,0.8,0.9,1.7,1.1,2.7c0.3,1,0.4,2.2,0.4,3.5c0,1.2-0.1,2.3-0.4,3.3
						c-0.3,1-0.6,2-1.2,2.8c-0.5,0.8-1.2,1.4-1.9,1.9C83.7,27.6,82.8,27.9,81.8,27.9z M77.6,27.2h4.3c0.8,0,1.6-0.2,2.3-0.6
						c0.7-0.4,1.2-1,1.7-1.7c0.5-0.7,0.8-1.6,1.1-2.5c0.2-1,0.4-2,0.4-3.1c0-1.2-0.1-2.3-0.4-3.3c-0.2-1-0.6-1.8-1-2.5
						c-0.4-0.7-1-1.2-1.7-1.6c-0.7-0.4-1.4-0.6-2.3-0.6h-4.3V27.2z"/>
				</g>
			</g>
		</g>
		<g id="XMLID_20_">
			<g id="XMLID_21_">
				<g id="XMLID_156_">
					<path id="XMLID_50_" class="st0" d="M21.9,8.6v2.3h-10v6.9h8.7V20h-8.7v9.8H9.3V8.6H21.9z"/>
					<path id="XMLID_79_" class="st0" d="M12.2,30.1H8.9V8.2h13.3v3h-10v6.2h8.7v3h-8.7V30.1z M9.6,29.4h1.9v-9.8h8.7v-1.6h-8.7
						v-7.6h10V8.9H9.6V29.4z"/>
				</g>
			</g>
		</g>
	</g>
	<g id="XMLID_1_">
		<g id="XMLID_49_">
			<g id="XMLID_147_">
				<path id="XMLID_48_" class="st0" d="M20.4,72.4v2.1h-9v6.2h7.8v2.1h-7.8v8.8H9.1V72.4H20.4z"/>
				<path id="XMLID_74_" class="st0" d="M11.8,91.8h-3V72h12v2.8h-9v5.5h7.8V83h-7.8V91.8z M9.5,91.1h1.6v-8.8h7.8V81h-7.8v-6.9h9
					v-1.3H9.5V91.1z"/>
			</g>
		</g>
		<g id="XMLID_47_">
			<g id="XMLID_140_">
				<path id="XMLID_46_" class="st0" d="M25.3,72.4v19.1H23V72.4H25.3z"/>
				<path id="XMLID_70_" class="st0" d="M25.7,91.8h-3V72h3V91.8z M23.4,91.1H25V72.7h-1.6V91.1z"/>
			</g>
		</g>
		<g id="XMLID_45_">
			<g id="XMLID_133_">
				<path id="XMLID_43_" class="st0" d="M31.7,72.4l7.9,15.3h0.1V72.4H42v19.1h-2.8l-8-15.4h-0.1v15.4h-2.3V72.4H31.7z"/>
				<path id="XMLID_66_" class="st0" d="M42.4,91.8H39l-7.5-14.4v14.4h-3V72h3.4l7.4,14.4V72h3V91.8z M39.5,91.1h2.2V72.7h-1.6V88
					h-0.7l-7.9-15.3h-2.2v18.4h1.6V75.8h0.7L39.5,91.1z"/>
			</g>
		</g>
		<g id="XMLID_42_">
			<g id="XMLID_123_">
				<path id="XMLID_41_" class="st0" d="M45.5,72.4h6.9c1.1,0,2.1,0.3,3,0.8c0.9,0.6,1.6,1.3,2.2,2.2c0.6,0.9,1,1.9,1.3,3
					c0.3,1.1,0.5,2.3,0.5,3.5c0,1.2-0.2,2.4-0.5,3.5c-0.3,1.2-0.8,2.2-1.3,3.1c-0.6,0.9-1.3,1.6-2.1,2.2c-0.8,0.5-1.8,0.8-2.9,0.8
					h-7.1V72.4z M47.8,89.4h4.2c0.8,0,1.6-0.2,2.2-0.6c0.6-0.4,1.2-0.9,1.6-1.6c0.4-0.7,0.8-1.5,1-2.4c0.2-0.9,0.3-1.9,0.3-2.9
					c0-1.1-0.1-2.1-0.3-3c-0.2-0.9-0.5-1.7-1-2.4c-0.4-0.7-1-1.2-1.6-1.5c-0.6-0.4-1.4-0.5-2.2-0.5h-4.2V89.4z"/>
				<path id="XMLID_61_" class="st0" d="M52.6,91.8h-7.5V72h7.3c1.2,0,2.3,0.3,3.2,0.9c0.9,0.6,1.7,1.4,2.3,2.3
					c0.6,0.9,1.1,2,1.4,3.1c0.3,1.2,0.5,2.4,0.5,3.6c0,1.2-0.2,2.4-0.5,3.6c-0.3,1.2-0.8,2.3-1.4,3.2c-0.6,0.9-1.4,1.7-2.2,2.3
					C54.8,91.5,53.7,91.8,52.6,91.8z M45.8,91.1h6.8c1,0,1.9-0.3,2.7-0.8c0.8-0.5,1.5-1.2,2-2.1c0.6-0.9,1-1.9,1.3-3
					c0.3-1.1,0.5-2.3,0.5-3.4c0-1.1-0.2-2.3-0.4-3.4c-0.3-1.1-0.7-2.1-1.3-2.9c-0.6-0.8-1.3-1.5-2.1-2.1c-0.8-0.5-1.8-0.8-2.8-0.8
					h-6.6V91.1z M51.9,89.8h-4.5V74.1H52c0.9,0,1.7,0.2,2.4,0.6c0.7,0.4,1.3,1,1.7,1.7c0.5,0.7,0.8,1.5,1,2.5c0.2,0.9,0.3,2,0.3,3.1
					c0,1-0.1,2-0.3,3c-0.2,0.9-0.6,1.8-1,2.5c-0.5,0.7-1.1,1.3-1.7,1.7C53.6,89.6,52.8,89.8,51.9,89.8z M48.1,89.1h3.8
					c0.8,0,1.4-0.2,2-0.6c0.6-0.4,1.1-0.9,1.5-1.5c0.4-0.6,0.7-1.4,0.9-2.3c0.2-0.9,0.3-1.8,0.3-2.8c0-1.1-0.1-2.1-0.3-3
					c-0.2-0.9-0.5-1.6-0.9-2.3c-0.4-0.6-0.9-1.1-1.5-1.4c-0.6-0.3-1.3-0.5-2-0.5h-3.8V89.1z"/>
			</g>
		</g>
		<g id="XMLID_40_">
			<g id="XMLID_116_">
				<path id="XMLID_37_" class="st0" d="M74,72.4v2.1h-9.3v6.2h8.7v2.1h-8.7v6.8h9.7v2.1h-12V72.4H74z"/>
				<path id="XMLID_56_" class="st0" d="M74.8,91.8H62.1V72h12.3v2.8h-9.3v5.5h8.7V83h-8.7v6.1h9.7V91.8z M62.8,91.1h11.3v-1.3h-9.7
					v-7.5h8.7V81h-8.7v-6.9h9.3v-1.3H62.8V91.1z"/>
			</g>
		</g>
		<g id="XMLID_36_">
			<g id="XMLID_106_">
				<path id="XMLID_31_" class="st0" d="M77.4,72.4h8.1c0.7,0,1.3,0.2,1.8,0.5c0.5,0.3,1,0.7,1.4,1.2c0.4,0.5,0.7,1,0.9,1.6
					c0.2,0.6,0.3,1.2,0.3,1.7c0,0.5-0.1,1.1-0.2,1.6c-0.1,0.5-0.3,1-0.5,1.5c-0.2,0.5-0.5,0.8-0.8,1.2c-0.3,0.3-0.7,0.5-1.1,0.6
					c0.9,0.2,1.5,0.6,1.8,1.3c0.3,0.6,0.5,1.4,0.5,2.2v3.6c0,0.5,0.1,1,0.2,1.3c0.2,0.4,0.3,0.7,0.6,0.9h-2.6
					c-0.1-0.1-0.2-0.3-0.3-0.4c-0.1-0.2-0.1-0.4-0.2-0.6c0-0.2-0.1-0.4-0.1-0.6c0-0.2,0-0.4,0-0.5v-3.7c0-0.3,0-0.6-0.1-0.9
					c-0.1-0.3-0.2-0.5-0.4-0.8c-0.2-0.2-0.5-0.4-0.8-0.5c-0.3-0.1-0.7-0.2-1.1-0.2h-5v8.2h-2.3V72.4z M79.7,81.2h5
					c0.4,0,0.7-0.1,1.1-0.3c0.3-0.2,0.6-0.5,0.9-0.8c0.2-0.3,0.4-0.7,0.6-1.1c0.1-0.4,0.2-0.8,0.2-1.2c0-0.4-0.1-0.8-0.2-1.2
					c-0.2-0.4-0.4-0.8-0.6-1.1c-0.3-0.3-0.6-0.6-0.9-0.8c-0.3-0.2-0.7-0.3-1-0.3h-5V81.2z"/>
				<path id="XMLID_51_" class="st0" d="M91.3,91.8h-3.7l-0.1-0.1c-0.2-0.2-0.3-0.3-0.4-0.6C87.1,91,87,90.8,87,90.6
					c0-0.2-0.1-0.4-0.1-0.7c0-0.2,0-0.4,0-0.6v-3.7c0-0.2,0-0.5-0.1-0.7c-0.1-0.2-0.2-0.4-0.4-0.6c-0.2-0.2-0.4-0.3-0.7-0.5
					c-0.3-0.1-0.6-0.2-1-0.2h-4.7v8.2h-3V72h8.5c0.7,0,1.4,0.2,2,0.5c0.6,0.3,1.1,0.8,1.5,1.3c0.4,0.5,0.7,1.1,0.9,1.7
					c0.2,0.6,0.3,1.2,0.3,1.8c0,0.5-0.1,1.1-0.2,1.7c-0.1,0.6-0.3,1.1-0.6,1.6c-0.2,0.5-0.6,0.9-0.9,1.3c-0.1,0.1-0.2,0.2-0.4,0.3
					c0.6,0.3,1,0.7,1.2,1.2c0.3,0.7,0.5,1.5,0.5,2.3v3.6c0,0.5,0.1,0.9,0.2,1.2c0.1,0.3,0.3,0.6,0.5,0.7L91.3,91.8z M87.9,91.1h1.7
					c-0.1-0.1-0.1-0.2-0.2-0.4c-0.2-0.4-0.3-0.9-0.3-1.5v-3.6c0-0.7-0.1-1.4-0.4-2c-0.3-0.5-0.8-0.9-1.6-1.1l-1.6-0.4l1.6-0.3
					c0.3-0.1,0.6-0.2,0.9-0.5c0.3-0.3,0.6-0.6,0.8-1.1c0.2-0.4,0.4-0.9,0.5-1.4c0.1-0.5,0.2-1,0.2-1.5c0-0.5-0.1-1-0.3-1.6
					c-0.2-0.6-0.5-1.1-0.8-1.5c-0.3-0.5-0.8-0.8-1.3-1.1c-0.5-0.3-1-0.4-1.6-0.4h-7.8v18.4h1.6v-8.2h5.4c0.5,0,0.9,0.1,1.3,0.3
					c0.3,0.2,0.6,0.4,0.9,0.6c0.2,0.3,0.4,0.6,0.5,0.9c0.1,0.3,0.2,0.6,0.2,1v3.7c0,0.1,0,0.3,0,0.5c0,0.2,0,0.4,0.1,0.6
					c0,0.2,0.1,0.3,0.1,0.5C87.8,91,87.9,91.1,87.9,91.1z M84.7,81.6h-5.3v-7.5h5.3c0.4,0,0.8,0.1,1.2,0.3c0.4,0.2,0.7,0.5,1,0.9
					c0.3,0.3,0.5,0.7,0.7,1.2c0.2,0.4,0.3,0.9,0.3,1.3c0,0.4-0.1,0.9-0.2,1.4c-0.2,0.5-0.4,0.9-0.6,1.2c-0.3,0.4-0.6,0.7-1,0.9
					C85.6,81.5,85.1,81.6,84.7,81.6z M80.1,80.9h4.6c0.3,0,0.6-0.1,0.9-0.3c0.3-0.2,0.6-0.4,0.8-0.7c0.2-0.3,0.4-0.6,0.5-1
					c0.1-0.4,0.2-0.8,0.2-1.1c0-0.3-0.1-0.7-0.2-1c-0.1-0.4-0.3-0.7-0.6-1c-0.2-0.3-0.5-0.5-0.8-0.7c-0.3-0.2-0.5-0.2-0.8-0.2h-4.6
					V80.9z"/>
			</g>
		</g>
	</g>
	<g id="XMLID_35_">
		<g id="XMLID_38_">
			<g id="XMLID_100_">
				<path id="XMLID_101_" d="M54.9,38.5c0.9,2.8,1.8,5.6,2.8,8.3c0.1,0.4,0.5,0.7,0.9,0.9c1.4,0.7,2.9,1.3,4.4,1.8
					c0.9,0.3,1.2,0.9,1.2,1.8c0,2.6,0,5.2,0,7.8c0,1.3-0.2,1.5-1.6,1.5c-0.1,0-0.2,0-0.3,0c-1.8,0.2-3.1,0-3.9-2.2
					c-1-2.8-4.2-4.1-7.3-3.4c-2.8,0.6-5,3.2-5,6.3c0,1.1-0.4,1.3-1.4,1.3c-5.2,0-10.5,0-15.7,0c-1.3,0-1.3-0.1-1.3-1.3
					c0-3.5-3-6.4-6.5-6.4c-3.5-0.1-6.5,2.8-6.6,6.4c0,1.3-0.1,1.4-1.4,1.4c-0.8,0-1.6,0-2.4,0c-1.4,0-1.5,0-1.5-1.5
					c0-7.2,0-14.3,0-21.5c0-1,0-1.9,0-2.9c0-0.9,0.4-1.3,1.3-1.2c0.1,0,0.2,0,0.3,0c14.5,0,29.1,0,43.6,0c1.4,0,2.2,1.4,1.5,2.5
					C55.7,38.1,55.3,38.2,54.9,38.5z M43.1,47.4c4,0,7.8,0,11.8,0c-0.6-2.1-1.3-4.2-1.9-6.3c-0.2-0.7-0.5-0.8-1.1-0.8
					c-2.7,0-5.4,0-8.1,0c-0.3,0-0.5,0-0.8,0.1C43.1,42.8,43.1,45.1,43.1,47.4z"/>
			</g>
		</g>
		<g id="XMLID_12_">
			<g id="XMLID_97_">
				<path id="XMLID_98_" d="M21.1,66.5c-3,0-5.2-2.3-5.2-5.3c0-2.9,2.4-5.2,5.3-5.2c2.9,0,5.2,2.4,5.2,5.3
					C26.5,64.2,24.1,66.5,21.1,66.5z"/>
			</g>
		</g>
		<g id="XMLID_11_">
			<g id="XMLID_92_">
				<path id="XMLID_94_" d="M47.5,61.2c0-2.9,2.3-5.2,5.2-5.2c2.9,0,5.3,2.4,5.3,5.3c0,3-2.3,5.2-5.3,5.2
					C49.8,66.5,47.5,64.2,47.5,61.2z"/>
			</g>
		</g>
	</g>
</g>
</svg>
