<?xml version="1.0" encoding="utf-8"?>
<!-- Generator: Adobe Illustrator 19.0.0, SVG Export Plug-In . SVG Version: 6.00 Build 0)  -->
<svg version="1.1" id="Layer_1" xmlns="http://www.w3.org/2000/svg" xmlns:xlink="http://www.w3.org/1999/xlink" x="0px" y="0px"
	 viewBox="-74 76 100 100" style="enable-background:new -74 76 100 100;" xml:space="preserve">
<style type="text/css">
	.st0{fill:#00628B;}
</style>
<g>
	<path class="st0" d="M-11.8,103.2c1.6,0,3.2-0.3,4.6-0.8c0.1,0.3,0.2,0.5,0.3,0.7c0.5,1,0.8,1.8,1.3,2.7c0.1,0,0.1,0.1,0.1,0.1
		c0.6-0.6,1.4-1,2.3-1.1c-0.6-1.1-1.1-2.4-1.7-3.6c3.9-2.3,6.5-6.5,6.4-11.4c0.1-3.7-1.3-7-3.8-9.7c-2.5-2.6-6-4.1-9.6-4.1
		s-6.9,1.4-9.4,3.9s-3.9,6-3.9,9.6C-25.3,97.1-19.2,103.2-11.8,103.2z M-21.6,89.8c0-5.4,4.4-9.8,9.8-9.8s9.8,4.4,9.9,9.9
		c0,2.6-1.1,5.1-3,7c-1.9,1.8-4.4,2.7-7,2.7C-17.3,99.6-21.6,95.1-21.6,89.8z"/>
	<path class="st0" d="M6.3,123.4c-0.4-0.5-0.6-1.1-0.8-1.6c-0.6-1.2-1.1-2.3-1.7-3.5c-0.4-0.7-0.7-1.4-1.1-2.2
		c-0.6-1.2-1.1-2.3-1.7-3.5c-0.2-0.5-0.5-1-0.7-1.4c-0.5-1.1-1.1-2.3-1.7-3.5c-0.4-0.5-0.6-1.1-0.8-1.6c-0.1-0.2-0.2-0.5-0.4-0.7
		c-0.1-0.1-0.2-0.2-0.4-0.2s-0.1,0-0.2,0c-0.1-0.1-0.4,0-0.5,0c-0.5,0.1-1,0.4-1.3,0.6c-0.1,0.1-0.2,0.2-0.4,0.4
		c-0.1,0.1-0.2,0.2-0.2,0.4c0,0.1,0,0.1,0,0.2v0.1c0.1,0.4,0.2,0.6,0.4,0.8c1.1,2.5,2.2,4.9,3.2,7.4c1.1,2.3,2,4.4,3,6.7
		c0.7,1.4,1.3,2.9,1.9,4.3c0.2,0.6,0.6,1.3,0.8,1.9c0.1,0.4,0.4,0.5,0.7,0.6c0.1,0.1,0.4,0.1,0.5,0.1s0.2,0,0.4-0.2
		c0.4-0.1,0.6-0.2,1-0.4c0.4-0.1,0.7-0.4,1-0.7c0.1-0.1,0.2-0.2,0.4-0.5c0.1-0.4,0.1-0.6,0-1C7.3,125.1,6.8,124.4,6.3,123.4z"/>
	<path class="st0" d="M-40.4,103.1c7.4,0,13.4-5.9,13.3-13.3c0.1-3.7-1.3-7-3.8-9.7c-2.5-2.6-6-4.1-9.6-4.1s-6.9,1.4-9.4,3.9
		s-3.9,6-3.9,9.6C-53.9,96.9-47.8,103.1-40.4,103.1z M-50.2,89.6c0-5.4,4.4-9.8,9.8-9.8c5.4,0,9.8,4.4,9.9,9.9c0,2.6-1.1,5.1-3,7
		c-1.9,1.8-4.4,2.7-7,2.7C-45.9,99.4-50.2,94.9-50.2,89.6z"/>
	<path class="st0" d="M18.9,101.1c1.2-0.7,2.2-1.8,3-3c0.7-1.2,1.3-2.6,1.8-4.2c0.4-1.6,0.6-3.2,0.6-4.8c0-1.6-0.2-3.1-0.6-4.7
		c-0.4-1.6-1-3-1.8-4.2c-0.7-1.2-1.8-2.3-3-3c-1.2-0.8-2.6-1.2-4.2-1.2H5v26.2h9.8C16.4,102.4,17.8,101.9,18.9,101.1z M9.1,79.9h5.1
		c1.1,0,1.9,0.2,2.7,0.7c0.8,0.5,1.6,1.1,2,1.9c0.5,0.8,1,1.8,1.2,3c0.4,1.2,0.5,2.5,0.5,3.9c0,1.3-0.2,2.5-0.5,3.7
		c-0.4,1.1-0.7,2.2-1.3,3c-0.6,0.8-1.2,1.6-2,2c-0.8,0.5-1.8,0.7-2.7,0.7h-5C9.1,98.8,9.1,79.9,9.1,79.9z"/>
	<polygon class="st0" points="-69.2,90.8 -58.8,90.8 -58.8,87.1 -69.2,87.1 -69.2,79.8 -57.2,79.8 -57.2,76.1 -73.1,76.1 
		-73.1,102.4 -69.2,102.4 	"/>
</g>
<g>
	<path class="st0" d="M-57.8,134.3c-3.6,0-6.6,2.8-6.6,6.5c0,3.8,2.7,6.6,6.5,6.6s6.8-2.8,6.6-6.5
		C-51.3,137.3-54.2,134.3-57.8,134.3z"/>
	<path class="st0" d="M-12,141c0-3.6-3-6.6-6.6-6.6c-3.6,0-6.5,2.8-6.5,6.5c0,3.8,2.8,6.6,6.5,6.6C-14.8,147.4-12,144.6-12,141z"/>
	<g>
		<path class="st0" d="M-52.4,121.2c-0.7,0-2.5,1.5-3.8,3.6c-1.3,2.1-1.6,4.2-0.6,4.2c1,0,2.2-1.4,3.4-3.6
			C-52,122.8-51.7,121.2-52.4,121.2z"/>
		<path class="st0" d="M-5.8,126.2c-1.9-0.6-3.8-1.4-5.5-2.3c-0.5-0.2-1-0.6-1.1-1.1c-1.3-3.3-2.4-6.9-3.4-10.3
			c0.5-0.4,1-0.5,1.4-0.5c0.8-1.4-0.1-3.1-1.9-3.1c-18,0-36.3,0-54.3,0c-0.1,0-0.2,0-0.4,0c-1.1-0.1-1.7,0.4-1.7,1.5
			c0,1.3,0,2.4,0,3.6c0,9,0,17.8,0,26.8c0,1.9,0.1,1.9,1.9,1.9c1,0,2,0,3,0c1.7,0,1.8-0.1,1.8-1.8c0.1-4.5,3.9-8.1,8.2-7.9
			c4.4,0,8.1,3.6,8.1,7.9c0,1.5,0,1.7,1.7,1.7c6.5,0,13,0,19.6,0c1.3,0,1.8-0.2,1.8-1.7c0-3.9,2.7-7.1,6.3-7.8
			c3.9-0.8,7.8,0.7,9.1,4.3c1,2.7,2.6,3,4.9,2.7c0,0.1,0.1,0.1,0.2,0.1c1.8,0,2-0.2,2-1.9c0-3.2,0-6.5,0-9.7
			C-4.3,127.3-4.7,126.6-5.8,126.2z M-59.6,121.2c-0.6-0.4-0.9-1.1-0.6-2.3c0.4-1.3,1.2-2.6,0.7-3.2c-0.7-0.7-4.3,1.2-6.5,4.8
			c-2.1,3.5-1.9,7.1-0.7,8c1.5,1.2,4.1-0.4,5.9-3.9c0.1-0.3,0.4-0.3,0.5,0c0.6,1.6-0.9,3.4-1.9,4.1c-1.7,1.2-3.7,1.2-5,0.5
			c-1.1-0.6-2-2.1-2.1-4c-0.1-5.1,4.2-9.4,6.9-10.5c1.3-0.5,2.5-0.6,3.2,0.1c0.5,0.5,1.1,1.2,1.3,1.8c0.2,0.7,0.1,1.4-0.2,2.1
			c-0.4,0.7-0.7,1.7-1,2.4C-59.2,121.2-59.4,121.4-59.6,121.2z M-34.7,119.9c-0.5-0.1-1.3,0-1.9,0.1c-0.9,1.6-2.3,3.9-3.2,6
			c-0.8,1.8-0.5,3.2,0.5,3.3c1.1,0,2.4-1.7,3.3-3.5c0.1-0.3,0.4-0.3,0.5,0c0.1,0.4,0,0.8-0.2,1.4c-0.3,0.7-1.9,2.8-3.8,2.7
			c-0.9,0-1.7-0.6-2-1.6c-0.7,1-1.8,1.7-2.9,1.6c-1.8-0.1-2.5-1.7-2-3.6c0.5-1.6,1.9-3.4,3-4.5c-1.1,0.6-2.1,0.9-2.8,0.9
			c-1.2,3.4-3.3,7-5.9,7.2c-1.3,0.1-2-0.7-2-2c-0.8,1-1.8,1.9-3,1.9c-2.2,0-2.7-3-0.7-5.9c1.9-2.8,3.8-3.9,5-3.9
			c0.9,0,1.4,0.7,1.4,1.6c0.4-0.6,0.7-1.1,0.8-1.3c0.2-0.3,0.4-0.4,0.6-0.1c0.4,0.4,0.6,1.4,0,2.6c-0.5,1.1-1.8,3-2.3,4.2
			c-0.6,1.4-0.5,2.3,0.3,2.2c1.5-0.1,3.7-3.1,4.8-6.6c-1.9-0.7,0.3-4,1.3-4c0.7,0,0.5,1.4,0,3c0.9-0.1,1.8-0.5,2.7-1.1
			c0.3-0.2,0.5-0.3,0.7,0c0.5,0.5,1,1.6,0.3,2.4c-1.1,1.3-2.4,3-2.7,4.2c-0.4,1.3-0.1,2.3,0.6,2.3c0.9,0.1,1.9-1.2,2.7-2.7
			c0.1-0.4,0.2-0.8,0.4-1.2c0.5-1.2,1.5-3.2,2.5-5.1c-0.8,0-1.4-0.4-1.6-0.6c-0.2-0.3-0.1-0.5,0.3-0.5c0.7,0,1.3,0,2-0.1
			c0.7-1.3,1.4-2.4,1.8-3c0.2-0.3,0.5-0.3,0.6,0c0.3,0.7,0.3,1.5-0.3,2.7c0.9,0,1.3,0.4,1.5,0.7C-34.2,119.7-34.3,119.9-34.7,119.9z
			 M-30.6,123.7c0-2.8,0-5.7-0.1-8.8c0.4-0.1,0.6-0.1,1-0.1c3.3,0,6.8,0,10.1,0c0.7,0,1.1,0.1,1.4,1c0.7,2.6,1.7,5.2,2.4,7.8
			C-20.8,123.7-25.6,123.7-30.6,123.7z"/>
	</g>
</g>
<g>
	<polygon class="st0" points="-73.2,176.1 -69.6,176.1 -69.6,165.6 -60.3,165.6 -60.3,162.4 -69.6,162.4 -69.6,155.8 -58.9,155.8 
		-58.9,152.4 -73.2,152.4 	"/>
	<polygon class="st0" points="-36.8,152.4 -36.8,169.6 -45.6,152.4 -49.7,152.4 -49.7,176.1 -46.1,176.1 -46.1,158.9 -37.2,176.1 
		-33.2,176.1 -33.2,152.4 	"/>
	<path class="st0" d="M-14.6,156.2c-0.7-1.1-1.7-2-2.7-2.7c-1.1-0.7-2.4-1.1-3.8-1.1h-8.7v23.6h9c1.3,0,2.6-0.4,3.7-1
		c1-0.7,1.9-1.7,2.6-2.7c0.7-1.1,1.3-2.4,1.7-3.8c0.4-1.4,0.6-2.9,0.6-4.3c0-1.4-0.2-2.9-0.6-4.3C-13.3,158.7-13.9,157.2-14.6,156.2
		z M-16.1,164.2c0,1.2-0.1,2.3-0.4,3.3c-0.2,1.1-0.6,2-1.1,2.7s-1.1,1.3-1.8,1.8c-0.7,0.5-1.4,0.7-2.4,0.7h-4.5v-17.2h4.5
		c0.8,0,1.7,0.2,2.4,0.6c0.7,0.4,1.3,1,1.8,1.7c0.5,0.8,0.8,1.7,1.1,2.7C-16.2,161.8-16.1,162.9-16.1,164.2z"/>
	<polygon class="st0" points="-6,165.6 4.4,165.6 4.4,162.4 -6,162.4 -6,155.8 5.1,155.8 5.1,152.4 -9.6,152.4 -9.6,176.1 
		5.6,176.1 5.6,172.9 -6,172.9 	"/>
	<path class="st0" d="M24.4,175.4c-0.2-0.1-0.5-0.5-0.6-0.8c-0.1-0.4-0.2-0.8-0.2-1.4v-4.3c0-1-0.2-1.9-0.6-2.7
		c-0.2-0.6-0.7-1.1-1.4-1.4c0.2-0.1,0.4-0.2,0.5-0.4c0.4-0.5,0.8-1,1.1-1.6c0.4-0.6,0.6-1.2,0.7-1.9s0.2-1.4,0.2-2
		c0-0.7-0.1-1.4-0.4-2.2c-0.2-0.7-0.6-1.4-1.1-2s-1.1-1.2-1.8-1.6c-0.7-0.4-1.6-0.6-2.4-0.6H8.2v23.6h3.6v-9.8h5.6
		c0.5,0,0.8,0.1,1.2,0.2c0.4,0.2,0.6,0.4,0.8,0.6c0.2,0.2,0.4,0.5,0.5,0.7s0.1,0.6,0.1,0.8v4.4c0,0.2,0,0.5,0,0.7
		c0,0.4,0.1,0.6,0.1,0.8s0.1,0.5,0.1,0.6c0.1,0.4,0.2,0.5,0.5,0.7l0.1,0.1h4.4L24.4,175.4z M20.1,160.7c-0.1,0.5-0.4,0.8-0.6,1.2
		s-0.6,0.6-1,0.8s-0.7,0.4-1.1,0.4H12v-7.2h5.5c0.4,0,0.6,0,1,0.2s0.7,0.5,1,0.8c0.4,0.4,0.6,0.7,0.7,1.2c0.1,0.4,0.2,0.8,0.2,1.2
		C20.3,159.7,20.2,160.2,20.1,160.7z"/>
	<path id="XMLID_3_" class="st0" d="M-55.9,168.5c0-2,0-4.1,0-6.1c0-0.5-0.1-0.7-0.6-0.9c-0.7-0.2-1.1-0.7-1.1-1.5c0-2.3,0-4.7,0-7
		c0-0.2,0.2-0.5,0.2-0.6c0.4-0.1,0.5,0.2,0.5,0.5c0,1.5,0,3.1,0,4.6c0,0.3,0,0.6,0.5,0.6c0.4,0,0.5-0.2,0.5-0.6c0-1.5,0-3,0-4.5
		c0-0.2,0-0.3,0-0.4c0.1-0.2,0.2-0.2,0.3-0.2s0.2,0.2,0.3,0.2c0.1,0.2,0,0.3,0,0.5c0,1.5,0,3,0,4.4c0,0.2,0,0.6,0.4,0.6
		s0.5-0.1,0.5-0.5c0-1.5,0-3.1,0-4.6c0-0.2,0-0.3,0.1-0.4c0.1-0.1,0.3-0.2,0.4-0.2c0.2,0.1,0.2,0.3,0.2,0.5c0,1.5,0,2.9,0,4.4
		c0,0.2,0,0.3,0,0.5c0,0.3,0.1,0.5,0.5,0.5c0.3,0,0.5-0.2,0.5-0.5c0-1.5,0-3.1,0-4.7c0-0.2,0-0.3,0.1-0.5c0.1-0.1,0.2-0.2,0.4-0.1
		c0.1,0,0.2,0.2,0.2,0.3c0.1,0.2,0,0.4,0,0.6c0,2.2,0,4.4,0,6.5c0,0.9-0.3,1.4-1.1,1.5c-0.4,0.1-0.5,0.3-0.5,0.6c0,4.2,0,8.4,0,12.6
		c0,1-0.9,1.6-1.8,1.2c-0.4-0.2-0.6-0.6-0.6-1C-55.9,172.7-55.9,170.6-55.9,168.5z"/>
</g>
</svg>
